<?xml version="1.0" standalone="no"?>
<!DOCTYPE svg PUBLIC "-//W3C//DTD SVG 20010904//EN"
 "http://www.w3.org/TR/2001/REC-SVG-20010904/DTD/svg10.dtd">
<svg version="1.0" xmlns="http://www.w3.org/2000/svg"
 width="512.000000pt" height="512.000000pt" viewBox="0 0 512.000000 512.000000"
 preserveAspectRatio="xMidYMid meet">

<g transform="translate(0.000000,512.000000) scale(0.100000,-0.100000)"
fill="#000000" stroke="none">
<path d="M2370 4753 c-690 -71 -1268 -415 -1646 -980 -87 -129 -203 -368 -253
-520 -158 -477 -146 -1018 35 -1481 197 -507 557 -910 1035 -1161 299 -157
598 -235 944 -248 371 -13 705 58 1040 221 652 320 1090 913 1212 1644 25 150
25 514 0 664 -105 630 -440 1153 -964 1505 -128 85 -367 202 -520 252 -140 47
-323 86 -472 101 -96 9 -332 11 -411 3z m381 -103 c255 -25 523 -102 746 -213
650 -327 1082 -958 1153 -1686 49 -507 -103 -1041 -417 -1459 -72 -96 -234
-264 -333 -347 -420 -350 -992 -527 -1531 -475 -389 38 -767 184 -1077 417
-96 72 -264 234 -347 333 -350 420 -527 992 -475 1531 41 421 211 833 475
1149 83 99 251 261 347 333 418 314 952 466 1459 417z"/>
<path d="M2006 3549 c-20 -17 -40 -47 -46 -67 -14 -51 -14 -1793 0 -1844 6
-21 26 -50 47 -68 34 -30 40 -32 102 -28 101 6 177 45 811 426 661 396 734
449 759 547 28 110 -32 190 -237 319 -459 288 -1147 692 -1238 725 -30 12 -79
21 -109 21 -46 0 -59 -4 -89 -31z m174 -92 c149 -61 1304 -756 1368 -823 25
-27 32 -42 32 -74 0 -32 -7 -47 -32 -74 -64 -67 -1219 -762 -1368 -823 -70
-28 -95 -29 -114 -1 -14 20 -16 122 -16 898 0 776 2 878 16 898 19 28 44 27
114 -1z"/>
</g>
</svg>
